<svg xmlns="http://www.w3.org/2000/svg" width="54.94" height="48.722" viewBox="0 0 54.94 48.722">
  <g id="Groupe_290" data-name="Groupe 290" transform="translate(-383.658 -127.69)">
    <path id="Tracé_38" data-name="Tracé 38" d="M421.392,175.631a26.928,26.928,0,0,0,5.358-4.309.976.976,0,0,0-.007-1.371c-1.915-2.382-8.325-10.355-8.529-10.6a1.121,1.121,0,0,0-1.475-.32c-.848.555-5.227,3.828-5.227,3.828a1.75,1.75,0,0,1-1.816.14c-1.379-.77-12.671-13.163-13.311-14.607a1.749,1.749,0,0,1,.308-1.8s3.665-4.057,4.3-4.85a1.121,1.121,0,0,0-.183-1.5c-.225-.226-7.57-7.347-9.764-9.474a.977.977,0,0,0-1.365-.134,27,27,0,0,0-4.787,4.935c-1.943,2.419,3.027,17.346,12.251,27.362C405.947,172.5,418.922,177.263,421.392,175.631Z" transform="translate(0 -0.349)" fill="none" stroke="#fff" stroke-linejoin="round" stroke-width="1.5"/>
    <path id="Tracé_39" data-name="Tracé 39" d="M427.984,149.044a10.332,10.332,0,0,1-10.3-10.3h0a10.332,10.332,0,0,1,10.3-10.3H433.4a10.332,10.332,0,0,1,10.3,10.3h0a10.332,10.332,0,0,1-10.3,10.3l-7.453,4.914Z" transform="translate(-5.852)" fill="none" stroke="#fff" stroke-linejoin="round" stroke-width="1.5"/>
    <circle id="Ellipse_14" data-name="Ellipse 14" cx="1.54" cy="1.54" r="1.54" transform="translate(428.644 137.358)" fill="none" stroke="#fff" stroke-miterlimit="10" stroke-width="1"/>
    <circle id="Ellipse_15" data-name="Ellipse 15" cx="1.54" cy="1.54" r="1.54" transform="translate(423.3 137.358)" fill="none" stroke="#fff" stroke-miterlimit="10" stroke-width="1"/>
    <circle id="Ellipse_16" data-name="Ellipse 16" cx="1.54" cy="1.54" r="1.54" transform="translate(417.956 137.358)" fill="none" stroke="#fff" stroke-miterlimit="10" stroke-width="1"/>
  </g>
</svg>
