<svg xmlns="http://www.w3.org/2000/svg" width="55.556" height="48.724" viewBox="0 0 55.556 48.724">
  <g id="Groupe_285" data-name="Groupe 285" transform="translate(-123.953 -132.886)">
    <g id="Groupe_284" data-name="Groupe 284" transform="translate(124.703 133.636)">
      <g id="Groupe_283" data-name="Groupe 283">
        <path id="Tracé_32" data-name="Tracé 32" d="M166.108,146.734v-13.1H124.7v33.285h24.7" transform="translate(-124.703 -133.636)" fill="none" stroke="#fff" stroke-linecap="round" stroke-linejoin="round" stroke-width="1.5"/>
        <line id="Ligne_2" data-name="Ligne 2" x2="41.405" transform="translate(0 6.849)" fill="none" stroke="#fff" stroke-linecap="round" stroke-linejoin="round" stroke-width="1.5"/>
        <rect id="Rectangle_26" data-name="Rectangle 26" width="8.532" height="6.849" transform="translate(5.768 13.098)" stroke-width="1.5" stroke="#fff" stroke-linecap="round" stroke-linejoin="round" fill="none"/>
        <line id="Ligne_3" data-name="Ligne 3" x2="5.648" transform="translate(5.768 27.517)" fill="none" stroke="#fff" stroke-linecap="round" stroke-linejoin="round" stroke-width="1.5"/>
        <line id="Ligne_4" data-name="Ligne 4" x2="5.957" transform="translate(16.222 27.517)" fill="none" stroke="#fff" stroke-linecap="round" stroke-linejoin="round" stroke-width="1.5"/>
        <path id="Tracé_33" data-name="Tracé 33" d="M133.2,167.765v8.58h18.933" transform="translate(-124.913 -134.48)" fill="none" stroke="#fff" stroke-linecap="round" stroke-linejoin="round" stroke-width="1.5"/>
        <path id="Tracé_34" data-name="Tracé 34" d="M166.839,181.321c-16.222-5.167-12.136-24.633-12.136-24.633s6.188,1.5,12.136-4.446c5.948,5.948,12.136,4.446,12.136,4.446S183.061,176.154,166.839,181.321Z" transform="translate(-125.433 -134.096)" fill="none" stroke="#fff" stroke-linecap="round" stroke-linejoin="round" stroke-width="1.5"/>
        <path id="Tracé_35" data-name="Tracé 35" d="M162.661,167.079l3.124,3,5.648-5.768" transform="translate(-125.642 -134.395)" fill="none" stroke="#fff" stroke-linecap="round" stroke-linejoin="round" stroke-width="1.5"/>
      </g>
    </g>
  </g>
</svg>
