<svg xmlns="http://www.w3.org/2000/svg" width="55.945" height="63.857" viewBox="0 0 55.945 63.857">
  <g id="Groupe_298" data-name="Groupe 298" transform="translate(-514.167 -366.004)">
    <path id="Tracé_46" data-name="Tracé 46" d="M544.623,400.6" transform="translate(-2.484 -2.874)" fill="none" stroke="#fff" stroke-linecap="round" stroke-miterlimit="10" stroke-width="1.5"/>
    <g id="Groupe_297" data-name="Groupe 297" transform="translate(515.625 367.048)">
      <path id="Tracé_47" data-name="Tracé 47" d="M539.59,418.615l-13.553,13.553-2.144-8.269-8.269-2.144L526.39,410.99" transform="translate(-515.625 -370.811)" fill="none" stroke="#fff" stroke-linecap="round" stroke-miterlimit="10" stroke-width="1.5"/>
      <path id="Tracé_48" data-name="Tracé 48" d="M547.32,418.517l13.637,13.637,2.144-8.269,8.269-2.144-10.91-10.91" transform="translate(-518.339 -370.798)" fill="none" stroke="#fff" stroke-linecap="round" stroke-miterlimit="10" stroke-width="1.5"/>
      <path id="Tracé_49" data-name="Tracé 49" d="M542.295,367.048l6.2,6,8.546-1.209,1.491,8.5,7.625,4.045-3.791,7.754,3.791,7.754-7.625,4.045-1.491,8.5-8.546-1.209-6.2,6-6.2-6-8.546,1.209-1.491-8.5-7.624-4.045,3.791-7.754-3.791-7.754,7.624-4.045,1.491-8.5,8.546,1.209Z" transform="translate(-515.865 -367.048)" fill="none" stroke="#fff" stroke-linecap="round" stroke-miterlimit="10" stroke-width="1.5"/>
      <circle id="Ellipse_20" data-name="Ellipse 20" cx="14.452" cy="14.452" r="14.452" transform="translate(11.978 10.641)" fill="none" stroke="#fff" stroke-linecap="round" stroke-miterlimit="10" stroke-width="1.5"/>
      <path id="Tracé_50" data-name="Tracé 50" d="M535.818,394.571l5.5,4.36,10.774-10.167" transform="translate(-517.354 -368.908)" fill="none" stroke="#fff" stroke-linecap="round" stroke-linejoin="round" stroke-width="1.5"/>
    </g>
  </g>
</svg>
