<svg xmlns="http://www.w3.org/2000/svg" width="77.25" height="34.755" viewBox="0 0 77.25 34.755">
  <g id="Groupe_323" data-name="Groupe 323" transform="translate(-105.981 -318.46)">
    <g id="Groupe_1" data-name="Groupe 1">
      <path id="Tracé_1" data-name="Tracé 1" d="M111.11,318.46V332l6.337-6.576h5.932l-6.891,6.718,7.673,11.561h-6.088l-5.011-8.169-1.952,1.875V343.7h-5.022V318.46Z" fill="#fff"/>
      <path id="Tracé_2" data-name="Tracé 2" d="M131.3,339.32a5.157,5.157,0,0,0,5.874.331,3.169,3.169,0,0,0,1.337-1.605h4.418a8.364,8.364,0,0,1-3.251,4.7,9.588,9.588,0,0,1-5.3,1.413,10.468,10.468,0,0,1-3.89-.691,8.077,8.077,0,0,1-2.928-1.96,8.776,8.776,0,0,1-1.857-3.04,11.076,11.076,0,0,1-.651-3.889,10.92,10.92,0,0,1,.661-3.817,8.958,8.958,0,0,1,1.916-3.061,9.1,9.1,0,0,1,2.954-2.033,9.542,9.542,0,0,1,3.795-.738,8.627,8.627,0,0,1,4.066.9,8.228,8.228,0,0,1,2.849,2.423,9.958,9.958,0,0,1,1.607,3.465,12.857,12.857,0,0,1,.354,4.064h-13.19A5.071,5.071,0,0,0,131.3,339.32Zm5.674-9.619a3.546,3.546,0,0,0-2.744-.989,4.385,4.385,0,0,0-2,.41,3.8,3.8,0,0,0-1.264,1,3.691,3.691,0,0,0-.673,1.273,5.733,5.733,0,0,0-.238,1.2h8.168A5.8,5.8,0,0,0,136.972,329.7Z" fill="#fff"/>
      <path id="Tracé_3" data-name="Tracé 3" d="M158.589,343.7v-2.542h-.108a5.6,5.6,0,0,1-2.469,2.292,7.289,7.289,0,0,1-3.109.709,8.752,8.752,0,0,1-3.308-.532,4.7,4.7,0,0,1-2.033-1.5,5.873,5.873,0,0,1-1.041-2.37,14.649,14.649,0,0,1-.309-3.091V325.422h5.025v10.323a6.421,6.421,0,0,0,.708,3.38,2.754,2.754,0,0,0,2.508,1.113,3.512,3.512,0,0,0,2.978-1.217,6.883,6.883,0,0,0,.911-4.014v-9.585h5.022V343.7Z" fill="#fff"/>
      <path id="Tracé_4" data-name="Tracé 4" d="M171.413,339.155a2.957,2.957,0,0,0,.861.959,3.732,3.732,0,0,0,1.217.548,5.752,5.752,0,0,0,1.433.177,5.215,5.215,0,0,0,1.109-.125,3.748,3.748,0,0,0,1.063-.389,2.293,2.293,0,0,0,.793-.708,1.852,1.852,0,0,0,.319-1.113c0-.755-.5-1.317-1.5-1.694a29.717,29.717,0,0,0-4.183-1.134c-.734-.168-1.442-.357-2.141-.582a7.243,7.243,0,0,1-1.853-.886,4.259,4.259,0,0,1-1.312-1.377,3.892,3.892,0,0,1-.5-2.033,5.484,5.484,0,0,1,.7-2.9,5,5,0,0,1,1.821-1.784,7.6,7.6,0,0,1,2.54-.915,15.664,15.664,0,0,1,2.9-.267,14.931,14.931,0,0,1,2.884.277,7.634,7.634,0,0,1,2.495.957,5.73,5.73,0,0,1,1.818,1.784,5.99,5.99,0,0,1,.863,2.814H177.96a2.2,2.2,0,0,0-1.088-1.96,5,5,0,0,0-2.34-.514,8.435,8.435,0,0,0-.911.052,3.1,3.1,0,0,0-.907.229,1.869,1.869,0,0,0-.686.514,1.343,1.343,0,0,0-.286.9,1.376,1.376,0,0,0,.5,1.1,3.915,3.915,0,0,0,1.289.686,16.084,16.084,0,0,0,1.818.479c.686.142,1.385.294,2.094.461s1.442.364,2.137.6a7.224,7.224,0,0,1,1.857.937,4.7,4.7,0,0,1,1.3,1.45,4.243,4.243,0,0,1,.5,2.138,5.544,5.544,0,0,1-2.613,4.989,7.911,7.911,0,0,1-2.668,1.041,15.8,15.8,0,0,1-3.064.3,14.928,14.928,0,0,1-3.108-.32,8.159,8.159,0,0,1-2.707-1.057,6,6,0,0,1-1.939-1.961,6.174,6.174,0,0,1-.838-3.062h4.775A2.738,2.738,0,0,0,171.413,339.155Z" fill="#fff"/>
    </g>
    <rect id="Rectangle_2" data-name="Rectangle 2" width="18.284" height="4.529" transform="translate(105.981 348.687)" fill="#fff"/>
  </g>
</svg>
