<svg xmlns="http://www.w3.org/2000/svg" viewBox="0 0 28.489 28.818">
    <g stroke="#fff" stroke-width=".65">
        <path data-name="Tracé 69" d="M24.096 7.751H6.589v16.677h17.507zm-10 1.667h2.5v3.335h-2.5zm8.337 13.338H8.256V9.418h4.168v5h5.836v-5h4.168z"></path>
        <path data-name="Tracé 70" d="M9.923 16.088h5v1.667h-5z"></path>
        <path data-name="Tracé 71" d="M9.923 19.423h2.755v1.667H9.923z"></path>
        <path data-name="Tracé 72" d="M23.841 3.861h-20.9l1.871-2.566L3.464.314.278 4.695l3.186 4.38 1.348-.981-1.871-2.566h20.9a2.754 2.754 0 012.751 2.751v15.895a2.754 2.754 0 01-2.751 2.751h-17a2.754 2.754 0 01-2.753-2.751v-7.252H2.42v7.252a4.423 4.423 0 004.421 4.419h17a4.423 4.423 0 004.418-4.418V8.279a4.423 4.423 0 00-4.418-4.418z"></path>
    </g>
</svg>