<svg xmlns="http://www.w3.org/2000/svg" viewBox="0 0 30.033 26.655">
    <g data-name="Groupe 397" transform="translate(-383.942 -127.94)" fill="#fff" stroke="#000">
        <path data-name="Tracé 38" d="M404.533 153.891a14.63 14.63 0 002.911-2.341.53.53 0 000-.745c-1.041-1.294-4.523-5.626-4.634-5.76a.609.609 0 00-.8-.174c-.461.3-2.84 2.08-2.84 2.08a.951.951 0 01-.987.076 70.862 70.862 0 01-7.232-7.936.95.95 0 01.167-.976s1.991-2.2 2.335-2.635a.609.609 0 00-.1-.815c-.122-.123-4.113-3.992-5.3-5.148a.531.531 0 00-.742-.073 14.668 14.668 0 00-2.6 2.682c-1.055 1.315 1.644 9.425 6.656 14.867 4.774 5.195 11.824 7.785 13.166 6.898z" stroke-linejoin="round"></path>
        <path data-name="Tracé 39" d="M404.936 139.635a5.614 5.614 0 01-5.6-5.6h0a5.614 5.614 0 015.6-5.6h2.941a5.614 5.614 0 015.6 5.6h0a5.614 5.614 0 01-5.6 5.6l-4.049 2.67z" stroke-linejoin="round"></path>
        <circle data-name="Ellipse 14" cx=".836" cy=".836" r=".836" transform="translate(408.473 133.286)" stroke-miterlimit="10"></circle>
        <circle data-name="Ellipse 15" cx=".836" cy=".836" r=".836" transform="translate(405.57 133.286)" stroke-miterlimit="10"></circle>
        <circle data-name="Ellipse 16" cx=".836" cy=".836" r=".836" transform="translate(402.666 133.286)" stroke-miterlimit="10"></circle>
    </g>
</svg>